<svg>
  <symbol xmlns="http://www.w3.org/2000/svg" viewBox="0 0 32 32" id="heart-line">
    <path d="M16.0007 4.50257C14.2526 2.89325 11.9644 2.00007 9.58959 2C8.33262 2.00131 7.08832 2.25148 5.92829 2.7361C4.76826 3.22073 3.71541 3.93025 2.83033 4.82382C-0.94478 8.61944 -0.943176 14.5562 2.83354 18.3358L14.5969 30.1129C14.8696 30.5932 15.3959 30.9032 16.0007 30.9032C16.2491 30.9008 16.4934 30.8401 16.7141 30.726C16.9347 30.6119 17.1256 30.4476 17.2714 30.2463L29.1679 18.3358C32.9446 14.5546 32.9446 8.61944 29.1647 4.8174C28.28 3.92546 27.228 3.21739 26.0691 2.73388C24.9102 2.25037 23.6673 2.00096 22.4118 2C20.0371 2.00039 17.749 2.89352 16.0007 4.50257ZM26.8961 7.08866C29.4037 9.61211 29.4053 13.5539 26.8993 16.0645L16.0007 26.9759L5.10214 16.0645C2.59609 13.5539 2.5977 9.61211 5.09893 7.09509C6.31826 5.88075 7.91301 5.21254 9.58959 5.21254C11.2662 5.21254 12.8545 5.88075 14.0642 7.09188L14.8664 7.89501C15.0153 8.04431 15.1921 8.16275 15.3867 8.24356C15.5814 8.32438 15.79 8.36597 16.0007 8.36597C16.2114 8.36597 16.4201 8.32438 16.6147 8.24356C16.8093 8.16275 16.9861 8.04431 17.135 7.89501L17.9372 7.09188C20.363 4.66801 24.4734 4.67444 26.8961 7.08866Z"></path>
  </symbol>
  <symbol xmlns="http://www.w3.org/2000/svg" viewBox="0 0 18 12" id="bike">
    <path d="M14.4143 4.1719C13.9538 4.17008 13.5135 4.25631 13.1083 4.41456L10.9235 0.839632C10.863 0.740534 10.7785 0.658769 10.6782 0.602072C10.5778 0.545375 10.4649 0.515621 10.35 0.515625H8.55002C8.30148 0.515625 8.10002 0.720232 8.10002 0.972656V1.42969C8.10002 1.68211 8.30148 1.88672 8.55002 1.88672H9.97452L10.3935 2.57227H7.20005V2.11523C7.20005 1.86281 6.99859 1.6582 6.75005 1.6582H4.29026C3.91223 1.6582 3.59341 1.97238 3.60019 2.35623C3.60671 2.72883 3.90608 3.0293 4.27505 3.0293H5.64547L4.81811 4.38668C4.44031 4.24871 4.03331 4.17293 3.60896 4.17188C1.63388 4.16702 0.0115788 5.80039 4.75612e-05 7.8063C-0.0116243 9.83561 1.60466 11.4844 3.60005 11.4844C5.27748 11.4844 6.68699 10.3191 7.08662 8.74219H8.55005C8.66502 8.74219 8.77809 8.71236 8.87852 8.65554C8.97896 8.59871 9.06345 8.51678 9.12397 8.4175L11.5416 4.45095L11.9618 5.13841C11.2459 5.80819 10.7978 6.7689 10.8 7.83595C10.8041 9.80213 12.4284 11.4651 14.3643 11.4842C16.3501 11.5037 17.9694 9.89019 17.9996 7.88517C18.0301 5.85878 16.4098 4.17979 14.4143 4.1719ZM5.25233 6.27913C5.52591 6.57989 5.72126 6.955 5.80477 7.37109H4.58678L5.25233 6.27913ZM3.60005 10.1133C2.3594 10.1133 1.35005 9.08816 1.35005 7.82812C1.35005 6.56809 2.3594 5.54297 3.60005 5.54297C3.76511 5.54297 3.9259 5.56162 4.08096 5.59607L2.80113 7.69581C2.52323 8.15167 2.84661 8.74219 3.37505 8.74219H5.66161C5.3137 9.54842 4.5208 10.1133 3.60005 10.1133ZM8.17402 7.37109H7.17209C7.06072 6.464 6.62208 5.66025 5.98007 5.08519L6.67605 3.94336H10.2633L8.17402 7.37109ZM14.2787 10.11C13.1246 10.0482 12.1961 9.0905 12.1517 7.91756C12.1289 7.31425 12.3383 6.76019 12.6955 6.339L13.9452 8.38382C14.0763 8.59828 14.3537 8.66421 14.5649 8.5311L14.9472 8.2901C15.1584 8.15699 15.2233 7.87523 15.0922 7.66077L13.8415 5.61432C14.024 5.56687 14.2117 5.5429 14.4 5.543C15.6407 5.543 16.65 6.56812 16.65 7.82815C16.65 9.12898 15.5742 10.1795 14.2787 10.11Z"></path>
  </symbol>
  <symbol xmlns="http://www.w3.org/2000/svg" viewBox="0 0 16 16" id="parking">
    <path d="M13.7455 0.6875H2.25446C1.38937 0.6875 0.6875 1.38937 0.6875 2.25446V13.7455C0.6875 14.6106 1.38937 15.3125 2.25446 15.3125H13.7455C14.6106 15.3125 15.3125 14.6106 15.3125 13.7455V2.25446C15.3125 1.38937 14.6106 0.6875 13.7455 0.6875ZM8.52232 10.0893H6.95536V11.6562C6.95536 11.9435 6.72031 12.1786 6.43304 12.1786H5.38839C5.10112 12.1786 4.86607 11.9435 4.86607 11.6562V4.34375C4.86607 4.05647 5.10112 3.82143 5.38839 3.82143H8.52232C10.2492 3.82143 11.6562 5.22843 11.6562 6.95536C11.6562 8.68228 10.2492 10.0893 8.52232 10.0893ZM8.52232 5.91071H6.95536V8H8.52232C9.09687 8 9.56696 7.52991 9.56696 6.95536C9.56696 6.3808 9.09687 5.91071 8.52232 5.91071Z"></path>
  </symbol>
  <symbol xmlns="http://www.w3.org/2000/svg" viewBox="0 0 32 32" id="heart-solid">
    <path d="M29.1641 3.81403C28.2795 2.92316 27.2275 2.21593 26.0686 1.733C24.9098 1.25007 23.6669 1.00096 22.4114 1C20.0367 1.00039 17.7487 1.89246 16.0004 3.49958C14.2523 1.89219 11.9642 1.00007 9.58941 1C8.33247 1.00131 7.08819 1.25118 5.92818 1.73522C4.76817 2.21927 3.71534 2.92794 2.83028 3.82045C-0.944762 7.61153 -0.943158 13.5412 2.83349 17.3163L16.0004 30.4832L29.1673 17.3163C32.944 13.5412 32.9456 7.61153 29.1641 3.81403Z"></path>
  </symbol>
  <symbol xmlns="http://www.w3.org/2000/svg" viewBox="0 0 14 16" id="map">
    <path d="M6.75132 0C3.22252 0 0.351322 2.8712 0.351322 6.396C0.328122 11.552 6.50812 15.8272 6.75132 16C6.75132 16 13.1745 11.552 13.1513 6.4C13.1513 2.8712 10.2801 0 6.75132 0ZM6.75132 9.6C4.98332 9.6 3.55132 8.168 3.55132 6.4C3.55132 4.632 4.98332 3.2 6.75132 3.2C8.51932 3.2 9.95132 4.632 9.95132 6.4C9.95132 8.168 8.51932 9.6 6.75132 9.6Z"></path>
  </symbol>
</svg>