<svg width="58" height="77" viewBox="0 0 58 77" fill="none" xmlns="http://www.w3.org/2000/svg">
<ellipse cx="29" cy="72.5" rx="15" ry="4.5" fill="#C5C5C5"/>
<path d="M28.8003 0C12.9207 0 0.000293201 12.9204 0.000293201 28.782C-0.104107 51.984 27.7059 71.2224 28.8003 72C28.8003 72 57.7047 51.984 57.6003 28.8C57.6003 12.9204 44.6799 0 28.8003 0ZM28.8003 43.2C20.8443 43.2 14.4003 36.756 14.4003 28.8C14.4003 20.844 20.8443 14.4 28.8003 14.4C36.7563 14.4 43.2003 20.844 43.2003 28.8C43.2003 36.756 36.7563 43.2 28.8003 43.2Z" fill="#9A9A9A"/>
<circle cx="29" cy="29" r="19" fill="white"/>
<path d="M29.5125 37.308C32.8125 37.308 35.0125 34.404 35.0125 28.794C35.0125 23.184 32.8125 20.412 29.5125 20.412C26.1905 20.412 23.9905 23.162 23.9905 28.794C23.9905 34.404 26.1905 37.308 29.5125 37.308ZM29.5125 34.778C28.1045 34.778 27.0485 33.37 27.0485 28.794C27.0485 24.24 28.1045 22.92 29.5125 22.92C30.8985 22.92 31.9545 24.24 31.9545 28.794C31.9545 33.37 30.8985 34.778 29.5125 34.778Z" fill="#9A9A9A"/>
</svg>
