<svg width="0" height="0" class="hidden">
  <symbol xmlns="http://www.w3.org/2000/svg" viewBox="0 0 32 32" id="clock">
    <path d="M16 0.5C7.4375 0.5 0.5 7.4375 0.5 16C0.5 24.5625 7.4375 31.5 16 31.5C24.5625 31.5 31.5 24.5625 31.5 16C31.5 7.4375 24.5625 0.5 16 0.5ZM21.7806 20.0625L20.5306 21.625C20.4486 21.7276 20.3472 21.813 20.2321 21.8763C20.1171 21.9397 19.9907 21.9797 19.8602 21.9943C19.7297 22.0088 19.5975 21.9974 19.4714 21.9609C19.3453 21.9243 19.2276 21.8633 19.125 21.7812L14.9375 18.6737C14.6449 18.4395 14.4087 18.1424 14.2465 17.8046C14.0842 17.4667 14 17.0967 14 16.7219V7C14 6.73478 14.1054 6.48043 14.2929 6.29289C14.4804 6.10536 14.7348 6 15 6H17C17.2652 6 17.5196 6.10536 17.7071 6.29289C17.8946 6.48043 18 6.73478 18 7V16L21.625 18.6562C21.7276 18.7383 21.813 18.8398 21.8764 18.9549C21.9397 19.0701 21.9798 19.1965 21.9942 19.3271C22.0087 19.4577 21.9973 19.5899 21.9606 19.7161C21.924 19.8423 21.8628 19.96 21.7806 20.0625Z"></path>
  </symbol>
  <symbol xmlns="http://www.w3.org/2000/svg" viewBox="0 0 32 32" id="food">
    <g clip-path="url(#clip0_54_2054)">
      <path d="M15.9937 0.949967C16.0437 1.24372 17 6.85622 17 8.99997C17 12.2687 15.2625 14.6 12.6938 15.5375L13.5 30.4187C13.5437 31.275 12.8625 32 12 32H8C7.14375 32 6.45625 31.2812 6.5 30.4187L7.30625 15.5375C4.73125 14.6 3 12.2625 3 8.99997C3 6.84997 3.95625 1.24372 4.00625 0.949967C4.20625 -0.318783 6.8375 -0.337533 7 1.01872V9.84372C7.08125 10.0562 7.94375 10.0437 8 9.84372C8.0875 8.26247 8.49375 1.14372 8.5 0.981217C8.70625 -0.318783 11.2937 -0.318783 11.4937 0.981217C11.5062 1.14997 11.9062 8.26247 11.9937 9.84372C12.05 10.0437 12.9187 10.0562 12.9937 9.84372V1.01872C13.1562 -0.331283 15.7937 -0.318783 15.9937 0.949967ZM23.4438 18.8062L22.5063 30.375C22.4312 31.25 23.125 32 24 32H27.5C28.3312 32 29 31.3312 29 30.5V1.49997C29 0.674967 28.3312 -3.27419e-05 27.5 -3.27419e-05C22.3438 -3.27419e-05 13.6625 11.1562 23.4438 18.8062Z"></path>
    </g>
    <defs>
      <clipPath id="clip0_54_2054">
        <rect width="26" height="32" fill="white" transform="translate(3)"></rect>
      </clipPath>
    </defs>
  </symbol>
  <symbol xmlns="http://www.w3.org/2000/svg" viewBox="0 0 32 32" id="menu">
    <path d="M3 8.25H29C29.5523 8.25 30 7.80231 30 7.25V4.75C30 4.19769 29.5523 3.75 29 3.75H3C2.44769 3.75 2 4.19769 2 4.75V7.25C2 7.80231 2.44769 8.25 3 8.25ZM3 18.25H29C29.5523 18.25 30 17.8023 30 17.25V14.75C30 14.1977 29.5523 13.75 29 13.75H3C2.44769 13.75 2 14.1977 2 14.75V17.25C2 17.8023 2.44769 18.25 3 18.25ZM3 28.25H29C29.5523 28.25 30 27.8023 30 27.25V24.75C30 24.1977 29.5523 23.75 29 23.75H3C2.44769 23.75 2 24.1977 2 24.75V27.25C2 27.8023 2.44769 28.25 3 28.25Z"></path>
  </symbol>
  <symbol xmlns="http://www.w3.org/2000/svg" viewBox="0 0 32 32" id="phone">
    <path d="M29.2015 21.7858L23.0764 19.1607C22.8147 19.0492 22.5239 19.0257 22.2477 19.0938C21.9716 19.1618 21.725 19.3178 21.5451 19.5381L18.8326 22.8522C14.5755 20.845 11.1495 17.4191 9.14231 13.162L12.4564 10.4494C12.6772 10.2699 12.8335 10.0233 12.9015 9.74697C12.9696 9.47067 12.9458 9.17971 12.8338 8.91814L10.2087 2.79303C10.0857 2.51106 9.86823 2.28085 9.59368 2.14208C9.31914 2.00331 9.00478 1.96468 8.7048 2.03286L3.01721 3.34539C2.728 3.41217 2.46996 3.57501 2.28522 3.80733C2.10048 4.03965 1.99993 4.32773 2 4.62455C2 18.6521 13.3697 30 27.3754 30C27.6724 30.0002 27.9606 29.8997 28.193 29.715C28.4254 29.5302 28.5883 29.2721 28.6551 28.9828L29.9677 23.2952C30.0354 22.9938 29.996 22.6781 29.8561 22.4027C29.7163 22.1272 29.4848 21.909 29.2015 21.7858Z"></path>
  </symbol>
  <symbol xmlns="http://www.w3.org/2000/svg" viewBox="0 0 32 32" id="search">
    <g clip-path="url(#clip0_28_308)">
      <path d="M31.5625 27.6688L25.3312 21.4375C25.05 21.1562 24.6687 21 24.2687 21H23.25C24.975 18.7938 26 16.0187 26 13C26 5.81875 20.1812 0 13 0C5.81875 0 0 5.81875 0 13C0 20.1812 5.81875 26 13 26C16.0187 26 18.7938 24.975 21 23.25V24.2687C21 24.6687 21.1562 25.05 21.4375 25.3312L27.6688 31.5625C28.2563 32.15 29.2063 32.15 29.7875 31.5625L31.5562 29.7938C32.1437 29.2063 32.1437 28.2563 31.5625 27.6688ZM13 21C8.58125 21 5 17.425 5 13C5 8.58125 8.575 5 13 5C17.4188 5 21 8.575 21 13C21 17.4188 17.425 21 13 21Z"></path>
    </g>
    <defs>
      <clipPath id="clip0_28_308">
        <rect width="32" height="32" fill="white"></rect>
      </clipPath>
    </defs>
  </symbol>
  <symbol xmlns="http://www.w3.org/2000/svg" viewBox="0 0 32 32" id="sort-down">
    <g clip-path="url(#clip0_40_889)">
      <path d="M19 26H15C14.7348 26 14.4805 26.1054 14.2929 26.2929C14.1054 26.4804 14 26.7348 14 27V29C14 29.2652 14.1054 29.5196 14.2929 29.7071C14.4805 29.8946 14.7348 30 15 30H19C19.2653 30 19.5196 29.8946 19.7072 29.7071C19.8947 29.5196 20 29.2652 20 29V27C20 26.7348 19.8947 26.4804 19.7072 26.2929C19.5196 26.1054 19.2653 26 19 26ZM11 22H8.00005V3C8.00005 2.73478 7.89469 2.48043 7.70715 2.29289C7.51962 2.10536 7.26526 2 7.00005 2H5.00005C4.73483 2 4.48048 2.10536 4.29294 2.29289C4.10541 2.48043 4.00005 2.73478 4.00005 3V22H1.00005C0.113173 22 -0.335577 23.0775 0.294423 23.7069L5.29442 29.7069C5.48194 29.8943 5.7362 29.9995 6.0013 29.9995C6.2664 29.9995 6.52066 29.8943 6.70817 29.7069L11.7082 23.7069C12.3344 23.0788 11.8888 22 11 22ZM27 10H15C14.7348 10 14.4805 10.1054 14.2929 10.2929C14.1054 10.4804 14 10.7348 14 11V13C14 13.2652 14.1054 13.5196 14.2929 13.7071C14.4805 13.8946 14.7348 14 15 14H27C27.2653 14 27.5196 13.8946 27.7072 13.7071C27.8947 13.5196 28 13.2652 28 13V11C28 10.7348 27.8947 10.4804 27.7072 10.2929C27.5196 10.1054 27.2653 10 27 10ZM23 18H15C14.7348 18 14.4805 18.1054 14.2929 18.2929C14.1054 18.4804 14 18.7348 14 19V21C14 21.2652 14.1054 21.5196 14.2929 21.7071C14.4805 21.8946 14.7348 22 15 22H23C23.2653 22 23.5196 21.8946 23.7072 21.7071C23.8947 21.5196 24 21.2652 24 21V19C24 18.7348 23.8947 18.4804 23.7072 18.2929C23.5196 18.1054 23.2653 18 23 18ZM31 2H15C14.7348 2 14.4805 2.10536 14.2929 2.29289C14.1054 2.48043 14 2.73478 14 3V5C14 5.26522 14.1054 5.51957 14.2929 5.70711C14.4805 5.89464 14.7348 6 15 6H31C31.2653 6 31.5196 5.89464 31.7072 5.70711C31.8947 5.51957 32 5.26522 32 5V3C32 2.73478 31.8947 2.48043 31.7072 2.29289C31.5196 2.10536 31.2653 2 31 2Z"></path>
    </g>
    <defs>
      <clipPath id="clip0_40_889">
        <rect width="32" height="32" fill="white"></rect>
      </clipPath>
    </defs>
  </symbol>
  <symbol xmlns="http://www.w3.org/2000/svg" viewBox="0 0 31 32" id="web">
    <path d="M15.5 0.5C6.93937 0.5 0 7.43937 0 16C0 24.5606 6.93937 31.5 15.5 31.5C24.0606 31.5 31 24.5606 31 16C31 7.43937 24.0606 0.5 15.5 0.5ZM20.6431 22.85C20.3994 23.0925 20.1438 23.3469 19.9363 23.555C19.7494 23.7425 19.6175 23.9737 19.5506 24.2244C19.4562 24.5781 19.38 24.9356 19.2525 25.2787L18.1656 28.2069C17.3056 28.3944 16.4156 28.5 15.5 28.5V26.7887C15.6056 26 15.0225 24.5225 14.0856 23.5856C13.7106 23.2106 13.5 22.7019 13.5 22.1712V20.1706C13.5 19.4431 13.1081 18.7744 12.4712 18.4225C11.5731 17.9256 10.2956 17.2312 9.42062 16.7906C8.70312 16.4294 8.03938 15.9694 7.4425 15.4312L7.3925 15.3862C6.96566 15.001 6.5867 14.5658 6.26375 14.09C5.6775 13.2294 4.7225 11.8138 4.10187 10.8938C5.38125 8.05 7.68688 5.76625 10.5519 4.52563L12.0525 5.27625C12.7175 5.60875 13.5 5.12563 13.5 4.38188V3.67563C13.9994 3.595 14.5075 3.54375 15.0244 3.52437L16.7931 5.29313C17.1838 5.68375 17.1838 6.31687 16.7931 6.7075L16.5 7L15.8538 7.64625C15.6588 7.84125 15.6588 8.15812 15.8538 8.35312L16.1469 8.64625C16.3419 8.84125 16.3419 9.15812 16.1469 9.35312L15.6469 9.85312C15.553 9.94682 15.4258 9.99942 15.2931 9.99938H14.7312C14.6012 9.99938 14.4762 10.05 14.3825 10.1412L13.7625 10.7444C13.6865 10.8184 13.636 10.9146 13.6182 11.0192C13.6005 11.1238 13.6164 11.2313 13.6637 11.3263L14.6381 13.2756C14.8044 13.6081 14.5625 13.9994 14.1912 13.9994H13.8387C13.7181 13.9994 13.6019 13.9556 13.5112 13.8769L12.9312 13.3731C12.8 13.2593 12.6414 13.1815 12.471 13.1476C12.3006 13.1136 12.1243 13.1245 11.9594 13.1794L10.0112 13.8287C9.86252 13.8783 9.73316 13.9735 9.64152 14.1007C9.54987 14.2279 9.50058 14.3807 9.50062 14.5375C9.50062 14.8206 9.66062 15.0787 9.91375 15.2056L10.6062 15.5519C11.1944 15.8463 11.8431 15.9994 12.5006 15.9994C13.1581 15.9994 13.9125 17.705 14.5006 17.9994H18.6725C19.2031 17.9994 19.7113 18.21 20.0869 18.585L20.9425 19.4406C21.2999 19.7982 21.5007 20.2831 21.5006 20.7887C21.5005 21.1719 21.4247 21.5512 21.2775 21.9049C21.1304 22.2587 20.9148 22.5798 20.6431 22.85ZM26.0625 17.1406C25.7006 17.05 25.385 16.8281 25.1781 16.5175L24.0544 14.8319C23.8899 14.5856 23.8022 14.2961 23.8022 14C23.8022 13.7039 23.8899 13.4144 24.0544 13.1681L25.2787 11.3319C25.4237 11.115 25.6225 10.9388 25.8563 10.8225L26.6675 10.4169C27.5125 12.0994 28 13.9919 28 16C28 16.5419 27.9537 17.0725 27.8862 17.5963L26.0625 17.1406Z"></path>
  </symbol>
  <symbol xmlns="http://www.w3.org/2000/svg" viewBox="0 0 30 30" id="crosshairs">
    <path d="M29.2969 13.125H27.5177C26.7026 7.63623 22.3638 3.29742 16.875 2.48227V0.703125C16.875 0.314824 16.5602 0 16.1719 0H13.8281C13.4398 0 13.125 0.314824 13.125 0.703125V2.48227C7.63623 3.29742 3.29742 7.63623 2.48227 13.125H0.703125C0.314824 13.125 0 13.4398 0 13.8281V16.1719C0 16.5602 0.314824 16.875 0.703125 16.875H2.48227C3.29742 22.3638 7.63623 26.7026 13.125 27.5177V29.2969C13.125 29.6852 13.4398 30 13.8281 30H16.1719C16.5602 30 16.875 29.6852 16.875 29.2969V27.5177C22.3638 26.7026 26.7026 22.3638 27.5177 16.875H29.2969C29.6852 16.875 30 16.5602 30 16.1719V13.8281C30 13.4398 29.6852 13.125 29.2969 13.125ZM16.875 23.709V21.3281C16.875 20.9398 16.5602 20.625 16.1719 20.625H13.8281C13.4398 20.625 13.125 20.9398 13.125 21.3281V23.709C9.71637 22.9823 7.01854 20.2877 6.29098 16.875H8.67188C9.06018 16.875 9.375 16.5602 9.375 16.1719V13.8281C9.375 13.4398 9.06018 13.125 8.67188 13.125H6.29098C7.01766 9.71637 9.71232 7.01854 13.125 6.29098V8.67188C13.125 9.06018 13.4398 9.375 13.8281 9.375H16.1719C16.5602 9.375 16.875 9.06018 16.875 8.67188V6.29098C20.2836 7.01766 22.9815 9.71232 23.709 13.125H21.3281C20.9398 13.125 20.625 13.4398 20.625 13.8281V16.1719C20.625 16.5602 20.9398 16.875 21.3281 16.875H23.709C22.9823 20.2836 20.2877 22.9815 16.875 23.709ZM16.875 15C16.875 16.0355 16.0355 16.875 15 16.875C13.9645 16.875 13.125 16.0355 13.125 15C13.125 13.9645 13.9645 13.125 15 13.125C16.0355 13.125 16.875 13.9645 16.875 15Z"></path>
  </symbol>
  <symbol xmlns="http://www.w3.org/2000/svg" viewBox="0 0 18 18" id="travel">
    <path d="M3.9644 5.59809L6.47724 6.66011C7.34323 4.33099 8.59879 2.53859 9.8979 1.69852C7.53838 1.55884 5.25219 2.75425 3.7818 4.89199C3.61716 5.13193 3.71634 5.49326 3.9644 5.59809ZM7.21895 6.97374L13.0877 9.45397C13.9678 5.98685 13.5479 2.8368 12.0386 2.19925C11.8565 2.12212 11.6663 2.08499 11.4704 2.08499C10.0426 2.08528 8.31381 4.06077 7.21895 6.97374ZM13.9582 3.41579C14.1112 3.88139 14.2247 4.40411 14.283 4.99225C14.4243 6.41731 14.2481 8.08374 13.8167 9.76189L16.342 10.829C16.5903 10.9339 16.8665 10.7311 16.8729 10.4243C16.93 7.69099 15.8415 5.07023 13.9582 3.41579ZM14.9061 14.4838H9.026L10.6241 9.3857L9.14412 8.76014L7.35012 14.4835H1.51875C1.3012 14.4835 1.125 14.6881 1.125 14.9409V15.8552C1.125 16.1077 1.3012 16.3125 1.51875 16.3125H14.9061C15.1236 16.3125 15.2998 16.1077 15.2998 15.8552V14.9409C15.2998 14.6883 15.1236 14.4838 14.9061 14.4838Z"></path>
  </symbol>
  <symbol xmlns="http://www.w3.org/2000/svg" viewBox="0 0 214 32" id="logo">
    <path d="M131.138 1.75957H136.992V30.7729H131.138V1.75957Z" fill="white"></path>
    <path d="M151.13 9.42347C154.257 9.42347 156.659 10.2055 158.335 11.7696C160.011 13.3076 160.849 15.6406 160.849 18.7687V30.7729H155.37V28.1531C154.27 30.1082 152.218 31.0857 149.216 31.0857C147.665 31.0857 146.315 30.812 145.164 30.2646C144.038 29.7172 143.175 28.9612 142.575 27.9967C141.974 27.0322 141.674 25.9373 141.674 24.7122C141.674 22.7571 142.375 21.2191 143.776 20.0982C145.201 18.9773 147.39 18.4168 150.342 18.4168H154.995C154.995 17.0874 154.607 16.0707 153.832 15.3669C153.056 14.637 151.893 14.2721 150.342 14.2721C149.267 14.2721 148.203 14.4545 147.153 14.8195C146.127 15.1584 145.251 15.6276 144.526 16.2271L142.425 11.9651C143.525 11.157 144.839 10.5313 146.365 10.0882C147.916 9.64504 149.504 9.42347 151.13 9.42347ZM150.68 26.9801C151.681 26.9801 152.569 26.7454 153.344 26.2762C154.12 25.7809 154.67 25.0641 154.995 24.1256V21.9751H150.98C148.579 21.9751 147.378 22.7962 147.378 24.4385C147.378 25.2205 147.665 25.8461 148.241 26.3153C148.841 26.7585 149.654 26.9801 150.68 26.9801Z" fill="white"></path>
    <path d="M178.98 9.42347C181.482 9.42347 183.495 10.2055 185.021 11.7696C186.572 13.3336 187.348 15.6536 187.348 18.7296V30.7729H181.494V19.6681C181.494 17.9997 181.144 16.7615 180.443 15.9534C179.743 15.1193 178.73 14.7022 177.404 14.7022C175.928 14.7022 174.752 15.1844 173.877 16.1489C173.001 17.0874 172.563 18.495 172.563 20.3719V30.7729H166.71V9.73628H172.301V12.1997C173.076 11.3134 174.039 10.6356 175.19 10.1664C176.341 9.67111 177.604 9.42347 178.98 9.42347Z" fill="white"></path>
    <path d="M214 1.75957V30.7729H208.409V28.3486C206.958 30.1733 204.856 31.0857 202.105 31.0857C200.203 31.0857 198.477 30.6426 196.926 29.7563C195.4 28.87 194.2 27.6057 193.324 25.9634C192.449 24.3211 192.011 22.4182 192.011 20.2546C192.011 18.091 192.449 16.188 193.324 14.5458C194.2 12.9035 195.4 11.6392 196.926 10.7529C198.477 9.86662 200.203 9.42347 202.105 9.42347C204.681 9.42347 206.695 10.2707 208.146 11.9651V1.75957H214ZM203.118 26.0807C204.594 26.0807 205.82 25.5594 206.795 24.5167C207.771 23.4479 208.259 22.0272 208.259 20.2546C208.259 18.482 207.771 17.0743 206.795 16.0316C205.82 14.9629 204.594 14.4285 203.118 14.4285C201.617 14.4285 200.379 14.9629 199.403 16.0316C198.427 17.0743 197.94 18.482 197.94 20.2546C197.94 22.0272 198.427 23.4479 199.403 24.5167C200.379 25.5594 201.617 26.0807 203.118 26.0807Z" fill="white"></path>
    <path d="M61.1181 16.5399C62.6249 17.0352 63.8052 17.8694 64.659 19.0424C65.5129 20.1894 65.9398 21.6101 65.9398 23.3045C65.9398 25.7027 65.0357 27.5535 63.2276 28.8569C61.4445 30.1342 58.8328 30.7729 55.3923 30.7729H41.7559V3.40183H54.6389C57.8534 3.40183 60.3144 4.04049 62.0221 5.31781C63.7549 6.59512 64.6213 8.32863 64.6213 10.5183C64.6213 11.8478 64.3074 13.0338 63.6796 14.0765C63.0769 15.1193 62.223 15.9404 61.1181 16.5399ZM47.8207 8.17222V14.624H53.8855C55.3923 14.624 56.5349 14.3503 57.3134 13.8028C58.0919 13.2554 58.4812 12.4473 58.4812 11.3785C58.4812 10.3098 58.0919 9.51471 57.3134 8.99335C56.5349 8.44593 55.3923 8.17222 53.8855 8.17222H47.8207ZM54.9402 26.0025C56.5475 26.0025 57.7529 25.7288 58.5565 25.1814C59.3853 24.634 59.7996 23.7868 59.7996 22.6398C59.7996 20.3719 58.1798 19.238 54.9402 19.238H47.8207V26.0025H54.9402Z" fill="#F5DFC6"></path>
    <path d="M70.7106 9.73628H76.5871V30.7729H70.7106V9.73628ZM73.6488 6.80366C72.569 6.80366 71.69 6.47782 71.0119 5.82613C70.3339 5.17444 69.9949 4.36634 69.9949 3.40183C69.9949 2.43733 70.3339 1.62923 71.0119 0.97754C71.69 0.325847 72.569 0 73.6488 0C74.7287 0 75.6076 0.312813 76.2857 0.938438C76.9637 1.56406 77.3028 2.34609 77.3028 3.28453C77.3028 4.30117 76.9637 5.14837 76.2857 5.82613C75.6076 6.47782 74.7287 6.80366 73.6488 6.80366Z" fill="#F5DFC6"></path>
    <path d="M91.3076 22.5225L88.4824 25.416V30.7729H82.606V1.75957H88.4824V18.1822L97.0711 9.73628H104.078L95.6397 18.6514L104.831 30.7729H97.7115L91.3076 22.5225Z" fill="#F5DFC6"></path>
    <path d="M127.008 20.3328C127.008 20.411 126.97 20.9584 126.895 21.9751H111.563C111.84 23.2784 112.493 24.3081 113.522 25.0641C114.552 25.82 115.833 26.198 117.364 26.198C118.419 26.198 119.348 26.0416 120.152 25.7288C120.981 25.3899 121.747 24.8686 122.45 24.1647L125.576 27.6839C123.668 29.9518 120.88 31.0857 117.214 31.0857C114.928 31.0857 112.907 30.6295 111.149 29.7172C109.391 28.7787 108.035 27.4884 107.081 25.8461C106.126 24.2038 105.649 22.34 105.649 20.2546C105.649 18.1952 106.114 16.3444 107.043 14.7022C107.997 13.0338 109.291 11.7435 110.923 10.8311C112.58 9.89269 114.426 9.42347 116.46 9.42347C118.444 9.42347 120.24 9.86662 121.847 10.7529C123.454 11.6392 124.71 12.9165 125.614 14.5849C126.543 16.2271 127.008 18.1431 127.008 20.3328ZM116.498 14.0374C115.167 14.0374 114.05 14.4285 113.145 15.2105C112.241 15.9925 111.689 17.0613 111.488 18.4168H121.47C121.27 17.0874 120.717 16.0316 119.813 15.2496C118.909 14.4415 117.804 14.0374 116.498 14.0374Z" fill="#F5DFC6"></path>
    <path d="M6.73485 31.3217C10.4544 31.3217 13.4697 28.1526 13.4697 24.2434C13.4697 20.3341 10.4544 17.165 6.73485 17.165C3.0153 17.165 0 20.3341 0 24.2434C0 28.1526 3.0153 31.3217 6.73485 31.3217Z" fill="#F5DFC6"></path>
    <path d="M28.062 31.3217C31.7816 31.3217 34.7969 28.1526 34.7969 24.2434C34.7969 20.3341 31.7816 17.165 28.062 17.165C24.3424 17.165 21.3271 20.3341 21.3271 24.2434C21.3271 28.1526 24.3424 31.3217 28.062 31.3217Z" fill="#F5DFC6"></path>
    <path fill-rule="evenodd" clip-rule="evenodd" d="M20.4714 6.31365C20.9532 6.39228 21.3816 6.67983 21.6521 7.10627L24.1289 11.0109H27.6876C28.6485 11.0109 29.4275 11.8296 29.4275 12.8395C29.4275 13.8494 28.6485 14.668 27.6876 14.668H23.1977C22.616 14.668 22.0728 14.3625 21.7501 13.8538L19.8095 10.7944L15.3261 14.5641L18.4414 17.8383C18.7677 18.1813 18.951 18.6464 18.951 19.1313V25.4232C18.951 26.4331 18.1721 27.2518 17.2112 27.2518C16.2503 27.2518 15.4714 26.4331 15.4714 25.4232V19.8887L11.491 15.7054C11.1411 15.3376 10.9567 14.8306 10.9841 14.3113C11.0115 13.792 11.248 13.3095 11.6344 12.9846L19.1176 6.6927C19.4984 6.37254 19.9895 6.23502 20.4714 6.31365Z" fill="#F5DFC6"></path>
    <path d="M24.6944 4.97454C25.521 4.97454 26.191 4.2703 26.191 3.40158C26.191 2.53285 25.521 1.82861 24.6944 1.82861C23.8678 1.82861 23.1978 2.53285 23.1978 3.40158C23.1978 4.2703 23.8678 4.97454 24.6944 4.97454Z" fill="#F5DFC6"></path>
    <path fill-rule="evenodd" clip-rule="evenodd" d="M24.6945 3.65714C24.8288 3.65714 24.9377 3.5427 24.9377 3.40154C24.9377 3.26037 24.8288 3.14593 24.6945 3.14593C24.5602 3.14593 24.4513 3.26037 24.4513 3.40154C24.4513 3.5427 24.5602 3.65714 24.6945 3.65714ZM21.458 3.40154C21.458 1.52292 22.907 0 24.6945 0C26.4819 0 27.931 1.52292 27.931 3.40154C27.931 5.28015 26.4819 6.80307 24.6945 6.80307C22.907 6.80307 21.458 5.28015 21.458 3.40154Z" fill="#F5DFC6"></path>
    <path fill-rule="evenodd" clip-rule="evenodd" d="M7.85742 13.3604C7.85742 13.8653 7.46795 14.2747 6.9875 14.2747L3.11496 14.2747C2.63452 14.2747 2.24504 13.8653 2.24504 13.3604C2.24504 12.8554 2.63452 12.4461 3.11496 12.4461L6.9875 12.4461C7.46795 12.4461 7.85742 12.8554 7.85742 13.3604Z" fill="#F5DFC6"></path>
    <path fill-rule="evenodd" clip-rule="evenodd" d="M11.2246 9.82131C11.2246 10.3263 10.8351 10.7356 10.3547 10.7356L6.48215 10.7356C6.00171 10.7356 5.61223 10.3263 5.61223 9.82131C5.61223 9.31637 6.00171 8.90703 6.48215 8.90703L10.3547 8.90702C10.8351 8.90702 11.2246 9.31636 11.2246 9.82131Z" fill="#F5DFC6"></path>
    <path fill-rule="evenodd" clip-rule="evenodd" d="M7.85742 6.282C7.85742 6.78695 7.46795 7.19629 6.9875 7.19629L3.11496 7.19629C2.63452 7.19629 2.24504 6.78695 2.24504 6.282C2.24504 5.77706 2.63452 5.36772 3.11496 5.36772L6.9875 5.36772C7.46795 5.36772 7.85742 5.77706 7.85742 6.282Z" fill="#F5DFC6"></path>
  </symbol>
  <symbol xmlns="http://www.w3.org/2000/svg" viewBox="0 0 214 32" id="logo2">
    <path d="M131.138 1.75957H136.992V30.7729H131.138V1.75957Z" fill="#464646"></path>
    <path d="M151.13 9.42347C154.257 9.42347 156.659 10.2055 158.335 11.7696C160.011 13.3076 160.849 15.6406 160.849 18.7687V30.7729H155.37V28.1531C154.27 30.1082 152.218 31.0857 149.216 31.0857C147.665 31.0857 146.315 30.812 145.164 30.2646C144.038 29.7172 143.175 28.9612 142.575 27.9967C141.974 27.0322 141.674 25.9373 141.674 24.7122C141.674 22.7571 142.375 21.2191 143.776 20.0982C145.201 18.9773 147.39 18.4168 150.342 18.4168H154.995C154.995 17.0874 154.607 16.0707 153.832 15.3669C153.056 14.637 151.893 14.2721 150.342 14.2721C149.267 14.2721 148.203 14.4545 147.153 14.8195C146.127 15.1584 145.251 15.6276 144.526 16.2271L142.425 11.9651C143.525 11.157 144.839 10.5313 146.365 10.0882C147.916 9.64504 149.504 9.42347 151.13 9.42347ZM150.68 26.9801C151.681 26.9801 152.569 26.7454 153.344 26.2762C154.12 25.7809 154.67 25.0641 154.995 24.1256V21.9751H150.98C148.579 21.9751 147.378 22.7962 147.378 24.4385C147.378 25.2205 147.665 25.8461 148.241 26.3153C148.841 26.7585 149.654 26.9801 150.68 26.9801Z" fill="#464646"></path>
    <path d="M178.98 9.42347C181.482 9.42347 183.495 10.2055 185.021 11.7696C186.572 13.3336 187.348 15.6536 187.348 18.7296V30.7729H181.494V19.6681C181.494 17.9997 181.144 16.7615 180.443 15.9534C179.743 15.1193 178.73 14.7022 177.404 14.7022C175.928 14.7022 174.752 15.1844 173.877 16.1489C173.001 17.0874 172.563 18.495 172.563 20.3719V30.7729H166.71V9.73628H172.301V12.1997C173.076 11.3134 174.039 10.6356 175.19 10.1664C176.341 9.67111 177.604 9.42347 178.98 9.42347Z" fill="#464646"></path>
    <path d="M214 1.75957V30.7729H208.409V28.3486C206.958 30.1733 204.856 31.0857 202.105 31.0857C200.203 31.0857 198.477 30.6426 196.926 29.7563C195.4 28.87 194.2 27.6057 193.324 25.9634C192.449 24.3211 192.011 22.4182 192.011 20.2546C192.011 18.091 192.449 16.188 193.324 14.5458C194.2 12.9035 195.4 11.6392 196.926 10.7529C198.477 9.86662 200.203 9.42347 202.105 9.42347C204.681 9.42347 206.695 10.2707 208.146 11.9651V1.75957H214ZM203.118 26.0807C204.594 26.0807 205.82 25.5594 206.795 24.5167C207.771 23.4479 208.259 22.0272 208.259 20.2546C208.259 18.482 207.771 17.0743 206.795 16.0316C205.82 14.9629 204.594 14.4285 203.118 14.4285C201.617 14.4285 200.379 14.9629 199.403 16.0316C198.427 17.0743 197.94 18.482 197.94 20.2546C197.94 22.0272 198.427 23.4479 199.403 24.5167C200.379 25.5594 201.617 26.0807 203.118 26.0807Z" fill="#464646"></path>
    <path d="M61.1181 16.5399C62.6249 17.0352 63.8052 17.8694 64.659 19.0424C65.5129 20.1894 65.9398 21.6101 65.9398 23.3045C65.9398 25.7027 65.0357 27.5535 63.2276 28.8569C61.4445 30.1342 58.8328 30.7729 55.3923 30.7729H41.7559V3.40183H54.6389C57.8534 3.40183 60.3144 4.04049 62.0221 5.31781C63.7549 6.59512 64.6213 8.32863 64.6213 10.5183C64.6213 11.8478 64.3074 13.0338 63.6796 14.0765C63.0769 15.1193 62.223 15.9404 61.1181 16.5399ZM47.8207 8.17222V14.624H53.8855C55.3923 14.624 56.5349 14.3503 57.3134 13.8028C58.0919 13.2554 58.4812 12.4473 58.4812 11.3785C58.4812 10.3098 58.0919 9.51471 57.3134 8.99335C56.5349 8.44593 55.3923 8.17222 53.8855 8.17222H47.8207ZM54.9402 26.0025C56.5475 26.0025 57.7529 25.7288 58.5565 25.1814C59.3853 24.634 59.7996 23.7868 59.7996 22.6398C59.7996 20.3719 58.1798 19.238 54.9402 19.238H47.8207V26.0025H54.9402Z" fill="#A4B375"></path>
    <path d="M70.7106 9.73628H76.5871V30.7729H70.7106V9.73628ZM73.6488 6.80366C72.569 6.80366 71.69 6.47782 71.0119 5.82613C70.3339 5.17444 69.9949 4.36634 69.9949 3.40183C69.9949 2.43733 70.3339 1.62923 71.0119 0.97754C71.69 0.325847 72.569 0 73.6488 0C74.7287 0 75.6076 0.312813 76.2857 0.938438C76.9637 1.56406 77.3028 2.34609 77.3028 3.28453C77.3028 4.30117 76.9637 5.14837 76.2857 5.82613C75.6076 6.47782 74.7287 6.80366 73.6488 6.80366Z" fill="#A4B375"></path>
    <path d="M91.3076 22.5225L88.4824 25.416V30.7729H82.606V1.75957H88.4824V18.1822L97.0711 9.73628H104.078L95.6397 18.6514L104.831 30.7729H97.7115L91.3076 22.5225Z" fill="#A4B375"></path>
    <path d="M127.008 20.3328C127.008 20.411 126.97 20.9584 126.895 21.9751H111.563C111.84 23.2784 112.493 24.3081 113.522 25.0641C114.552 25.82 115.833 26.198 117.364 26.198C118.419 26.198 119.348 26.0416 120.152 25.7288C120.981 25.3899 121.747 24.8686 122.45 24.1647L125.576 27.6839C123.668 29.9518 120.88 31.0857 117.214 31.0857C114.928 31.0857 112.907 30.6295 111.149 29.7172C109.391 28.7787 108.035 27.4884 107.081 25.8461C106.126 24.2038 105.649 22.34 105.649 20.2546C105.649 18.1952 106.114 16.3444 107.043 14.7022C107.997 13.0338 109.291 11.7435 110.923 10.8311C112.58 9.89269 114.426 9.42347 116.46 9.42347C118.444 9.42347 120.24 9.86662 121.847 10.7529C123.454 11.6392 124.71 12.9165 125.614 14.5849C126.543 16.2271 127.008 18.1431 127.008 20.3328ZM116.498 14.0374C115.167 14.0374 114.05 14.4285 113.145 15.2105C112.241 15.9925 111.689 17.0613 111.488 18.4168H121.47C121.27 17.0874 120.717 16.0316 119.813 15.2496C118.909 14.4415 117.804 14.0374 116.498 14.0374Z" fill="#A4B375"></path>
    <path d="M6.73485 31.3217C10.4544 31.3217 13.4697 28.1526 13.4697 24.2434C13.4697 20.3341 10.4544 17.165 6.73485 17.165C3.0153 17.165 0 20.3341 0 24.2434C0 28.1526 3.0153 31.3217 6.73485 31.3217Z" fill="#A4B375"></path>
    <path d="M28.062 31.3217C31.7816 31.3217 34.7969 28.1526 34.7969 24.2434C34.7969 20.3341 31.7816 17.165 28.062 17.165C24.3424 17.165 21.3271 20.3341 21.3271 24.2434C21.3271 28.1526 24.3424 31.3217 28.062 31.3217Z" fill="#A4B375"></path>
    <path fill-rule="evenodd" clip-rule="evenodd" d="M20.4714 6.31365C20.9532 6.39228 21.3816 6.67983 21.6521 7.10627L24.1289 11.0109H27.6876C28.6485 11.0109 29.4275 11.8296 29.4275 12.8395C29.4275 13.8494 28.6485 14.668 27.6876 14.668H23.1977C22.616 14.668 22.0728 14.3625 21.7501 13.8538L19.8095 10.7944L15.3261 14.5641L18.4414 17.8383C18.7677 18.1813 18.951 18.6464 18.951 19.1313V25.4232C18.951 26.4331 18.1721 27.2518 17.2112 27.2518C16.2503 27.2518 15.4714 26.4331 15.4714 25.4232V19.8887L11.491 15.7054C11.1411 15.3376 10.9567 14.8306 10.9841 14.3113C11.0115 13.792 11.248 13.3095 11.6344 12.9846L19.1176 6.6927C19.4984 6.37254 19.9895 6.23502 20.4714 6.31365Z" fill="#A4B375"></path>
    <path d="M24.6944 4.97454C25.521 4.97454 26.191 4.2703 26.191 3.40158C26.191 2.53285 25.521 1.82861 24.6944 1.82861C23.8678 1.82861 23.1978 2.53285 23.1978 3.40158C23.1978 4.2703 23.8678 4.97454 24.6944 4.97454Z" fill="#A4B375"></path>
    <path fill-rule="evenodd" clip-rule="evenodd" d="M24.6945 3.65714C24.8288 3.65714 24.9377 3.5427 24.9377 3.40154C24.9377 3.26037 24.8288 3.14593 24.6945 3.14593C24.5602 3.14593 24.4513 3.26037 24.4513 3.40154C24.4513 3.5427 24.5602 3.65714 24.6945 3.65714ZM21.458 3.40154C21.458 1.52292 22.907 0 24.6945 0C26.4819 0 27.931 1.52292 27.931 3.40154C27.931 5.28015 26.4819 6.80307 24.6945 6.80307C22.907 6.80307 21.458 5.28015 21.458 3.40154Z" fill="#A4B375"></path>
    <path fill-rule="evenodd" clip-rule="evenodd" d="M7.85742 13.3604C7.85742 13.8653 7.46795 14.2747 6.9875 14.2747L3.11496 14.2747C2.63452 14.2747 2.24504 13.8653 2.24504 13.3604C2.24504 12.8554 2.63452 12.4461 3.11496 12.4461L6.9875 12.4461C7.46795 12.4461 7.85742 12.8554 7.85742 13.3604Z" fill="#A4B375"></path>
    <path fill-rule="evenodd" clip-rule="evenodd" d="M11.2246 9.82131C11.2246 10.3263 10.8351 10.7356 10.3547 10.7356L6.48215 10.7356C6.00171 10.7356 5.61223 10.3263 5.61223 9.82131C5.61223 9.31637 6.00171 8.90703 6.48215 8.90703L10.3547 8.90702C10.8351 8.90702 11.2246 9.31636 11.2246 9.82131Z" fill="#A4B375"></path>
    <path fill-rule="evenodd" clip-rule="evenodd" d="M7.85742 6.282C7.85742 6.78695 7.46795 7.19629 6.9875 7.19629L3.11496 7.19629C2.63452 7.19629 2.24504 6.78695 2.24504 6.282C2.24504 5.77706 2.63452 5.36772 3.11496 5.36772L6.9875 5.36772C7.46795 5.36772 7.85742 5.77706 7.85742 6.282Z" fill="#A4B375"></path>
  </symbol>
  <symbol xmlns="http://www.w3.org/2000/svg" viewBox="0 0 16 16" id="parking">
    <path d="M13.7455 0.6875H2.25446C1.38937 0.6875 0.6875 1.38937 0.6875 2.25446V13.7455C0.6875 14.6106 1.38937 15.3125 2.25446 15.3125H13.7455C14.6106 15.3125 15.3125 14.6106 15.3125 13.7455V2.25446C15.3125 1.38937 14.6106 0.6875 13.7455 0.6875ZM8.52232 10.0893H6.95536V11.6562C6.95536 11.9435 6.72031 12.1786 6.43304 12.1786H5.38839C5.10112 12.1786 4.86607 11.9435 4.86607 11.6562V4.34375C4.86607 4.05647 5.10112 3.82143 5.38839 3.82143H8.52232C10.2492 3.82143 11.6562 5.22843 11.6562 6.95536C11.6562 8.68228 10.2492 10.0893 8.52232 10.0893ZM8.52232 5.91071H6.95536V8H8.52232C9.09687 8 9.56696 7.52991 9.56696 6.95536C9.56696 6.3808 9.09687 5.91071 8.52232 5.91071Z"></path>
  </symbol>
  <symbol xmlns="http://www.w3.org/2000/svg" viewBox="0 0 18 18" id="road">
    <path d="M13.9219 10.9688H10.9688C10.4273 10.9688 9.98438 10.5258 9.98438 9.98438C9.98438 9.44297 10.4273 9 10.9688 9H13.9219C13.9219 9 16.875 5.7085 16.875 4.07812C16.875 2.44775 15.5522 1.125 13.9219 1.125C12.2915 1.125 10.9688 2.44775 10.9688 4.07812C10.9688 4.86255 11.6517 6.02842 12.3623 7.03125H10.9688C9.34146 7.03125 8.01562 8.35708 8.01562 9.98438C8.01562 11.6117 9.34146 12.9375 10.9688 12.9375H13.9219C14.4633 12.9375 14.9062 13.3805 14.9062 13.9219C14.9062 14.4633 14.4633 14.9062 13.9219 14.9062H6.8313C6.33911 15.6691 5.79155 16.3736 5.37627 16.875H13.9219C15.5492 16.875 16.875 15.5492 16.875 13.9219C16.875 12.2946 15.5492 10.9688 13.9219 10.9688ZM13.9219 3.09375C14.4664 3.09375 14.9062 3.53364 14.9062 4.07812C14.9062 4.62261 14.4664 5.0625 13.9219 5.0625C13.3774 5.0625 12.9375 4.62261 12.9375 4.07812C12.9375 3.53364 13.3774 3.09375 13.9219 3.09375ZM4.07812 9C2.44775 9 1.125 10.3228 1.125 11.9531C1.125 13.5835 4.07812 16.875 4.07812 16.875C4.07812 16.875 7.03125 13.5835 7.03125 11.9531C7.03125 10.3228 5.7085 9 4.07812 9ZM4.07812 12.9375C3.53364 12.9375 3.09375 12.4976 3.09375 11.9531C3.09375 11.4086 3.53364 10.9688 4.07812 10.9688C4.62261 10.9688 5.0625 11.4086 5.0625 11.9531C5.0625 12.4976 4.62261 12.9375 4.07812 12.9375Z"></path>
  </symbol>
  <symbol xmlns="http://www.w3.org/2000/svg" viewBox="0 0 14 16" id="map">
    <path d="M6.75132 0C3.22252 0 0.351322 2.8712 0.351322 6.396C0.328122 11.552 6.50812 15.8272 6.75132 16C6.75132 16 13.1745 11.552 13.1513 6.4C13.1513 2.8712 10.2801 0 6.75132 0ZM6.75132 9.6C4.98332 9.6 3.55132 8.168 3.55132 6.4C3.55132 4.632 4.98332 3.2 6.75132 3.2C8.51932 3.2 9.95132 4.632 9.95132 6.4C9.95132 8.168 8.51932 9.6 6.75132 9.6Z"></path>
  </symbol>
  <symbol xmlns="http://www.w3.org/2000/svg" viewBox="0 0 32 32" id="heart-solid">
    <path d="M29.1641 3.81403C28.2795 2.92316 27.2275 2.21593 26.0686 1.733C24.9098 1.25007 23.6669 1.00096 22.4114 1C20.0367 1.00039 17.7487 1.89246 16.0004 3.49958C14.2523 1.89219 11.9642 1.00007 9.58941 1C8.33247 1.00131 7.08819 1.25118 5.92818 1.73522C4.76817 2.21927 3.71534 2.92794 2.83028 3.82045C-0.944762 7.61153 -0.943158 13.5412 2.83349 17.3163L16.0004 30.4832L29.1673 17.3163C32.944 13.5412 32.9456 7.61153 29.1641 3.81403Z"></path>
  </symbol>
  <symbol xmlns="http://www.w3.org/2000/svg" viewBox="0 0 32 32" id="heart-line">
    <path d="M16.0007 4.50257C14.2526 2.89325 11.9644 2.00007 9.58959 2C8.33262 2.00131 7.08832 2.25148 5.92829 2.7361C4.76826 3.22073 3.71541 3.93025 2.83033 4.82382C-0.94478 8.61944 -0.943176 14.5562 2.83354 18.3358L14.5969 30.1129C14.8696 30.5932 15.3959 30.9032 16.0007 30.9032C16.2491 30.9008 16.4934 30.8401 16.7141 30.726C16.9347 30.6119 17.1256 30.4476 17.2714 30.2463L29.1679 18.3358C32.9446 14.5546 32.9446 8.61944 29.1647 4.8174C28.28 3.92546 27.228 3.21739 26.0691 2.73388C24.9102 2.25037 23.6673 2.00096 22.4118 2C20.0371 2.00039 17.749 2.89352 16.0007 4.50257ZM26.8961 7.08866C29.4037 9.61211 29.4053 13.5539 26.8993 16.0645L16.0007 26.9759L5.10214 16.0645C2.59609 13.5539 2.5977 9.61211 5.09893 7.09509C6.31826 5.88075 7.91301 5.21254 9.58959 5.21254C11.2662 5.21254 12.8545 5.88075 14.0642 7.09188L14.8664 7.89501C15.0153 8.04431 15.1921 8.16275 15.3867 8.24356C15.5814 8.32438 15.79 8.36597 16.0007 8.36597C16.2114 8.36597 16.4201 8.32438 16.6147 8.24356C16.8093 8.16275 16.9861 8.04431 17.135 7.89501L17.9372 7.09188C20.363 4.66801 24.4734 4.67444 26.8961 7.08866Z"></path>
  </symbol>
  <symbol xmlns="http://www.w3.org/2000/svg" viewBox="0 0 18 12" id="bike">
    <path d="M14.4143 4.1719C13.9538 4.17008 13.5135 4.25631 13.1083 4.41456L10.9235 0.839632C10.863 0.740534 10.7785 0.658769 10.6782 0.602072C10.5778 0.545375 10.4649 0.515621 10.35 0.515625H8.55002C8.30148 0.515625 8.10002 0.720232 8.10002 0.972656V1.42969C8.10002 1.68211 8.30148 1.88672 8.55002 1.88672H9.97452L10.3935 2.57227H7.20005V2.11523C7.20005 1.86281 6.99859 1.6582 6.75005 1.6582H4.29026C3.91223 1.6582 3.59341 1.97238 3.60019 2.35623C3.60671 2.72883 3.90608 3.0293 4.27505 3.0293H5.64547L4.81811 4.38668C4.44031 4.24871 4.03331 4.17293 3.60896 4.17188C1.63388 4.16702 0.0115788 5.80039 4.75612e-05 7.8063C-0.0116243 9.83561 1.60466 11.4844 3.60005 11.4844C5.27748 11.4844 6.68699 10.3191 7.08662 8.74219H8.55005C8.66502 8.74219 8.77809 8.71236 8.87852 8.65554C8.97896 8.59871 9.06345 8.51678 9.12397 8.4175L11.5416 4.45095L11.9618 5.13841C11.2459 5.80819 10.7978 6.7689 10.8 7.83595C10.8041 9.80213 12.4284 11.4651 14.3643 11.4842C16.3501 11.5037 17.9694 9.89019 17.9996 7.88517C18.0301 5.85878 16.4098 4.17979 14.4143 4.1719ZM5.25233 6.27913C5.52591 6.57989 5.72126 6.955 5.80477 7.37109H4.58678L5.25233 6.27913ZM3.60005 10.1133C2.3594 10.1133 1.35005 9.08816 1.35005 7.82812C1.35005 6.56809 2.3594 5.54297 3.60005 5.54297C3.76511 5.54297 3.9259 5.56162 4.08096 5.59607L2.80113 7.69581C2.52323 8.15167 2.84661 8.74219 3.37505 8.74219H5.66161C5.3137 9.54842 4.5208 10.1133 3.60005 10.1133ZM8.17402 7.37109H7.17209C7.06072 6.464 6.62208 5.66025 5.98007 5.08519L6.67605 3.94336H10.2633L8.17402 7.37109ZM14.2787 10.11C13.1246 10.0482 12.1961 9.0905 12.1517 7.91756C12.1289 7.31425 12.3383 6.76019 12.6955 6.339L13.9452 8.38382C14.0763 8.59828 14.3537 8.66421 14.5649 8.5311L14.9472 8.2901C15.1584 8.15699 15.2233 7.87523 15.0922 7.66077L13.8415 5.61432C14.024 5.56687 14.2117 5.5429 14.4 5.543C15.6407 5.543 16.65 6.56812 16.65 7.82815C16.65 9.12898 15.5742 10.1795 14.2787 10.11Z"></path>
  </symbol>
</svg>